<mxfile host="app.diagrams.net" modified="2024-01-24T17:15:02.142Z" agent="Mozilla/5.0 (X11; Linux x86_64; rv:121.0) Gecko/20100101 Firefox/121.0" etag="UReAUBtFmKm2Ayp58bfJ" version="23.0.1" type="device">
  <diagram name="Page-1" id="2sD7yjUGzjUmPnmGaGPp">
    <mxGraphModel dx="1640" dy="1302" grid="0" gridSize="10" guides="1" tooltips="1" connect="1" arrows="1" fold="1" page="0" pageScale="1" pageWidth="850" pageHeight="1100" math="0" shadow="0">
      <root>
        <mxCell id="0" />
        <mxCell id="1" parent="0" />
        <mxCell id="xBkAP3J3gG5PXEwoHc84-98" style="edgeStyle=none;shape=connector;rounded=0;orthogonalLoop=1;jettySize=auto;html=1;exitX=0.5;exitY=0;exitDx=0;exitDy=0;labelBackgroundColor=default;strokeColor=default;align=center;verticalAlign=middle;fontFamily=Helvetica;fontSize=11;fontColor=default;endArrow=block;endFill=0;" edge="1" parent="1" source="xBkAP3J3gG5PXEwoHc84-2" target="xBkAP3J3gG5PXEwoHc84-95">
          <mxGeometry relative="1" as="geometry" />
        </mxCell>
        <mxCell id="xBkAP3J3gG5PXEwoHc84-107" style="edgeStyle=none;shape=connector;rounded=0;orthogonalLoop=1;jettySize=auto;html=1;exitX=1;exitY=1;exitDx=0;exitDy=0;entryX=0.5;entryY=0;entryDx=0;entryDy=0;labelBackgroundColor=default;strokeColor=default;align=center;verticalAlign=middle;fontFamily=Helvetica;fontSize=11;fontColor=default;endArrow=classic;" edge="1" parent="1" source="xBkAP3J3gG5PXEwoHc84-2" target="xBkAP3J3gG5PXEwoHc84-105">
          <mxGeometry relative="1" as="geometry" />
        </mxCell>
        <mxCell id="xBkAP3J3gG5PXEwoHc84-2" value="-3" style="ellipse;whiteSpace=wrap;html=1;aspect=fixed;" vertex="1" parent="1">
          <mxGeometry x="35" y="101" width="60" height="60" as="geometry" />
        </mxCell>
        <mxCell id="xBkAP3J3gG5PXEwoHc84-80" style="edgeStyle=none;shape=connector;rounded=0;orthogonalLoop=1;jettySize=auto;html=1;exitX=1;exitY=0.5;exitDx=0;exitDy=0;labelBackgroundColor=default;strokeColor=default;align=center;verticalAlign=middle;fontFamily=Helvetica;fontSize=11;fontColor=default;endArrow=classic;" edge="1" parent="1" source="xBkAP3J3gG5PXEwoHc84-3" target="xBkAP3J3gG5PXEwoHc84-78">
          <mxGeometry relative="1" as="geometry" />
        </mxCell>
        <mxCell id="xBkAP3J3gG5PXEwoHc84-86" style="edgeStyle=none;shape=connector;rounded=0;orthogonalLoop=1;jettySize=auto;html=1;exitX=0.5;exitY=0;exitDx=0;exitDy=0;entryX=0;entryY=0.5;entryDx=0;entryDy=0;labelBackgroundColor=default;strokeColor=default;align=center;verticalAlign=middle;fontFamily=Helvetica;fontSize=11;fontColor=default;endArrow=block;endFill=0;" edge="1" parent="1" source="xBkAP3J3gG5PXEwoHc84-3" target="xBkAP3J3gG5PXEwoHc84-85">
          <mxGeometry relative="1" as="geometry" />
        </mxCell>
        <mxCell id="xBkAP3J3gG5PXEwoHc84-3" value="-2" style="ellipse;whiteSpace=wrap;html=1;aspect=fixed;direction=south;" vertex="1" parent="1">
          <mxGeometry x="-241" y="110" width="60" height="60" as="geometry" />
        </mxCell>
        <mxCell id="xBkAP3J3gG5PXEwoHc84-100" style="edgeStyle=none;shape=connector;rounded=0;orthogonalLoop=1;jettySize=auto;html=1;exitX=0.5;exitY=0;exitDx=0;exitDy=0;entryX=0;entryY=0.5;entryDx=0;entryDy=0;labelBackgroundColor=default;strokeColor=default;align=center;verticalAlign=middle;fontFamily=Helvetica;fontSize=11;fontColor=default;endArrow=classic;startArrow=block;startFill=0;" edge="1" parent="1" source="xBkAP3J3gG5PXEwoHc84-4" target="xBkAP3J3gG5PXEwoHc84-95">
          <mxGeometry relative="1" as="geometry" />
        </mxCell>
        <mxCell id="xBkAP3J3gG5PXEwoHc84-101" style="edgeStyle=none;shape=connector;rounded=0;orthogonalLoop=1;jettySize=auto;html=1;exitX=1;exitY=0.5;exitDx=0;exitDy=0;entryX=0.5;entryY=0;entryDx=0;entryDy=0;labelBackgroundColor=default;strokeColor=default;align=center;verticalAlign=middle;fontFamily=Helvetica;fontSize=11;fontColor=default;endArrow=classic;startArrow=block;startFill=0;" edge="1" parent="1" source="xBkAP3J3gG5PXEwoHc84-4" target="xBkAP3J3gG5PXEwoHc84-85">
          <mxGeometry relative="1" as="geometry" />
        </mxCell>
        <mxCell id="xBkAP3J3gG5PXEwoHc84-102" style="edgeStyle=none;shape=connector;rounded=0;orthogonalLoop=1;jettySize=auto;html=1;exitX=0;exitY=1;exitDx=0;exitDy=0;entryX=0.5;entryY=1;entryDx=0;entryDy=0;labelBackgroundColor=default;strokeColor=default;align=center;verticalAlign=middle;fontFamily=Helvetica;fontSize=11;fontColor=default;endArrow=classic;" edge="1" parent="1" source="xBkAP3J3gG5PXEwoHc84-4" target="xBkAP3J3gG5PXEwoHc84-91">
          <mxGeometry relative="1" as="geometry" />
        </mxCell>
        <mxCell id="xBkAP3J3gG5PXEwoHc84-114" style="edgeStyle=none;shape=connector;rounded=0;orthogonalLoop=1;jettySize=auto;html=1;exitX=0;exitY=0.5;exitDx=0;exitDy=0;entryX=0.5;entryY=1;entryDx=0;entryDy=0;labelBackgroundColor=default;strokeColor=default;align=center;verticalAlign=middle;fontFamily=Helvetica;fontSize=11;fontColor=default;endArrow=classic;" edge="1" parent="1" source="xBkAP3J3gG5PXEwoHc84-4" target="xBkAP3J3gG5PXEwoHc84-113">
          <mxGeometry relative="1" as="geometry" />
        </mxCell>
        <mxCell id="xBkAP3J3gG5PXEwoHc84-4" value="System" style="ellipse;whiteSpace=wrap;html=1;aspect=fixed;direction=south;" vertex="1" parent="1">
          <mxGeometry x="-124" y="-5.5" width="60" height="60" as="geometry" />
        </mxCell>
        <mxCell id="xBkAP3J3gG5PXEwoHc84-8" style="rounded=0;orthogonalLoop=1;jettySize=auto;html=1;exitX=0.5;exitY=1;exitDx=0;exitDy=0;entryX=0.5;entryY=0;entryDx=0;entryDy=0;" edge="1" parent="1" source="xBkAP3J3gG5PXEwoHc84-5" target="xBkAP3J3gG5PXEwoHc84-13">
          <mxGeometry relative="1" as="geometry" />
        </mxCell>
        <mxCell id="xBkAP3J3gG5PXEwoHc84-5" value="&lt;div&gt;ctypes&lt;sub&gt;1&lt;/sub&gt;&lt;/div&gt;" style="rounded=0;whiteSpace=wrap;html=1;" vertex="1" parent="1">
          <mxGeometry x="-436" y="-55" width="56" height="33" as="geometry" />
        </mxCell>
        <mxCell id="xBkAP3J3gG5PXEwoHc84-26" style="edgeStyle=none;shape=connector;rounded=0;orthogonalLoop=1;jettySize=auto;html=1;exitX=0.5;exitY=1;exitDx=0;exitDy=0;labelBackgroundColor=default;strokeColor=default;align=center;verticalAlign=middle;fontFamily=Helvetica;fontSize=11;fontColor=default;endArrow=classic;entryX=0.383;entryY=0.05;entryDx=0;entryDy=0;entryPerimeter=0;" edge="1" parent="1" source="xBkAP3J3gG5PXEwoHc84-6" target="xBkAP3J3gG5PXEwoHc84-13">
          <mxGeometry relative="1" as="geometry" />
        </mxCell>
        <mxCell id="xBkAP3J3gG5PXEwoHc84-6" value="&lt;div&gt;ctypes&lt;sub&gt;3&lt;/sub&gt;&lt;/div&gt;" style="rounded=0;whiteSpace=wrap;html=1;" vertex="1" parent="1">
          <mxGeometry x="-512" y="-44" width="56" height="33" as="geometry" />
        </mxCell>
        <mxCell id="xBkAP3J3gG5PXEwoHc84-66" style="edgeStyle=none;shape=connector;rounded=0;orthogonalLoop=1;jettySize=auto;html=1;exitX=0.75;exitY=0;exitDx=0;exitDy=0;entryX=0;entryY=1;entryDx=0;entryDy=0;labelBackgroundColor=default;strokeColor=default;align=center;verticalAlign=middle;fontFamily=Helvetica;fontSize=11;fontColor=default;endArrow=classic;" edge="1" parent="1" source="xBkAP3J3gG5PXEwoHc84-7" target="xBkAP3J3gG5PXEwoHc84-13">
          <mxGeometry relative="1" as="geometry" />
        </mxCell>
        <mxCell id="xBkAP3J3gG5PXEwoHc84-7" value="&lt;div&gt;ctypes&lt;sub&gt;12&lt;/sub&gt;&lt;/div&gt;" style="rounded=0;whiteSpace=wrap;html=1;" vertex="1" parent="1">
          <mxGeometry x="-573" y="193" width="56" height="33" as="geometry" />
        </mxCell>
        <mxCell id="xBkAP3J3gG5PXEwoHc84-16" style="edgeStyle=none;shape=connector;rounded=0;orthogonalLoop=1;jettySize=auto;html=1;exitX=0;exitY=0;exitDx=0;exitDy=0;entryX=0.5;entryY=1;entryDx=0;entryDy=0;labelBackgroundColor=default;strokeColor=default;align=center;verticalAlign=middle;fontFamily=Helvetica;fontSize=11;fontColor=default;endArrow=classic;" edge="1" parent="1" source="xBkAP3J3gG5PXEwoHc84-13" target="xBkAP3J3gG5PXEwoHc84-14">
          <mxGeometry relative="1" as="geometry" />
        </mxCell>
        <mxCell id="xBkAP3J3gG5PXEwoHc84-18" style="edgeStyle=none;shape=connector;rounded=0;orthogonalLoop=1;jettySize=auto;html=1;exitX=1;exitY=0;exitDx=0;exitDy=0;entryX=0;entryY=0.5;entryDx=0;entryDy=0;labelBackgroundColor=default;strokeColor=default;align=center;verticalAlign=middle;fontFamily=Helvetica;fontSize=11;fontColor=default;endArrow=block;endFill=0;" edge="1" parent="1" source="xBkAP3J3gG5PXEwoHc84-13" target="xBkAP3J3gG5PXEwoHc84-82">
          <mxGeometry relative="1" as="geometry">
            <mxPoint x="-307.21320343559637" y="83.21320343559637" as="targetPoint" />
          </mxGeometry>
        </mxCell>
        <mxCell id="xBkAP3J3gG5PXEwoHc84-13" value="-1" style="ellipse;whiteSpace=wrap;html=1;aspect=fixed;" vertex="1" parent="1">
          <mxGeometry x="-411" y="67" width="60" height="60" as="geometry" />
        </mxCell>
        <mxCell id="xBkAP3J3gG5PXEwoHc84-14" value="l&lt;sub&gt;2&lt;/sub&gt;" style="rounded=0;whiteSpace=wrap;html=1;" vertex="1" parent="1">
          <mxGeometry x="-533" y="8" width="56" height="33" as="geometry" />
        </mxCell>
        <mxCell id="xBkAP3J3gG5PXEwoHc84-23" style="edgeStyle=none;shape=connector;rounded=0;orthogonalLoop=1;jettySize=auto;html=1;exitX=0.5;exitY=0;exitDx=0;exitDy=0;entryX=0.5;entryY=1;entryDx=0;entryDy=0;labelBackgroundColor=default;strokeColor=default;align=center;verticalAlign=middle;fontFamily=Helvetica;fontSize=11;fontColor=default;endArrow=classic;" edge="1" parent="1" source="xBkAP3J3gG5PXEwoHc84-19" target="xBkAP3J3gG5PXEwoHc84-20">
          <mxGeometry relative="1" as="geometry" />
        </mxCell>
        <mxCell id="xBkAP3J3gG5PXEwoHc84-19" value="CDLL&lt;sub&gt;4&lt;/sub&gt;" style="rounded=0;whiteSpace=wrap;html=1;" vertex="1" parent="1">
          <mxGeometry x="-196" y="-133" width="56" height="33" as="geometry" />
        </mxCell>
        <mxCell id="xBkAP3J3gG5PXEwoHc84-25" style="edgeStyle=none;shape=connector;rounded=0;orthogonalLoop=1;jettySize=auto;html=1;exitX=0.5;exitY=0;exitDx=0;exitDy=0;labelBackgroundColor=default;strokeColor=default;align=center;verticalAlign=middle;fontFamily=Helvetica;fontSize=11;fontColor=default;endArrow=block;endFill=0;" edge="1" parent="1" source="xBkAP3J3gG5PXEwoHc84-20" target="xBkAP3J3gG5PXEwoHc84-24">
          <mxGeometry relative="1" as="geometry" />
        </mxCell>
        <mxCell id="xBkAP3J3gG5PXEwoHc84-20" value="2" style="ellipse;whiteSpace=wrap;html=1;aspect=fixed;" vertex="1" parent="1">
          <mxGeometry x="-198" y="-236" width="60" height="60" as="geometry" />
        </mxCell>
        <mxCell id="xBkAP3J3gG5PXEwoHc84-24" value="sigma&lt;sub&gt;1&lt;/sub&gt;" style="ellipse;whiteSpace=wrap;html=1;aspect=fixed;" vertex="1" parent="1">
          <mxGeometry x="-198" y="-340" width="60" height="60" as="geometry" />
        </mxCell>
        <mxCell id="xBkAP3J3gG5PXEwoHc84-28" style="edgeStyle=none;shape=connector;rounded=0;orthogonalLoop=1;jettySize=auto;html=1;exitX=0.5;exitY=0;exitDx=0;exitDy=0;labelBackgroundColor=default;strokeColor=default;align=center;verticalAlign=middle;fontFamily=Helvetica;fontSize=11;fontColor=default;endArrow=classic;" edge="1" parent="1" source="xBkAP3J3gG5PXEwoHc84-27" target="xBkAP3J3gG5PXEwoHc84-13">
          <mxGeometry relative="1" as="geometry" />
        </mxCell>
        <mxCell id="xBkAP3J3gG5PXEwoHc84-27" value="&quot;./liblib.so&quot;&lt;sub&gt;5&lt;/sub&gt;" style="rounded=0;whiteSpace=wrap;html=1;" vertex="1" parent="1">
          <mxGeometry x="-370" y="193" width="72" height="39" as="geometry" />
        </mxCell>
        <mxCell id="xBkAP3J3gG5PXEwoHc84-30" style="edgeStyle=none;shape=connector;rounded=0;orthogonalLoop=1;jettySize=auto;html=1;exitX=1;exitY=0.5;exitDx=0;exitDy=0;entryX=0;entryY=0.5;entryDx=0;entryDy=0;labelBackgroundColor=default;strokeColor=default;align=center;verticalAlign=middle;fontFamily=Helvetica;fontSize=11;fontColor=default;endArrow=classic;" edge="1" parent="1" source="xBkAP3J3gG5PXEwoHc84-29" target="xBkAP3J3gG5PXEwoHc84-13">
          <mxGeometry relative="1" as="geometry" />
        </mxCell>
        <mxCell id="xBkAP3J3gG5PXEwoHc84-29" value="&lt;div&gt;l&lt;sub&gt;6&lt;/sub&gt;&lt;/div&gt;" style="rounded=0;whiteSpace=wrap;html=1;" vertex="1" parent="1">
          <mxGeometry x="-611" y="43" width="56" height="33" as="geometry" />
        </mxCell>
        <mxCell id="xBkAP3J3gG5PXEwoHc84-34" style="edgeStyle=none;shape=connector;rounded=0;orthogonalLoop=1;jettySize=auto;html=1;exitX=1;exitY=0.5;exitDx=0;exitDy=0;labelBackgroundColor=default;strokeColor=default;align=center;verticalAlign=middle;fontFamily=Helvetica;fontSize=11;fontColor=default;endArrow=classic;" edge="1" parent="1" source="xBkAP3J3gG5PXEwoHc84-31" target="xBkAP3J3gG5PXEwoHc84-13">
          <mxGeometry relative="1" as="geometry" />
        </mxCell>
        <mxCell id="xBkAP3J3gG5PXEwoHc84-31" value="&lt;div&gt;l&lt;sub&gt;9&lt;/sub&gt;&lt;/div&gt;" style="rounded=0;whiteSpace=wrap;html=1;" vertex="1" parent="1">
          <mxGeometry x="-622" y="94" width="56" height="33" as="geometry" />
        </mxCell>
        <mxCell id="xBkAP3J3gG5PXEwoHc84-37" style="edgeStyle=none;shape=connector;rounded=0;orthogonalLoop=1;jettySize=auto;html=1;exitX=0.5;exitY=0;exitDx=0;exitDy=0;labelBackgroundColor=default;strokeColor=default;align=center;verticalAlign=middle;fontFamily=Helvetica;fontSize=11;fontColor=default;endArrow=block;endFill=0;" edge="1" parent="1" source="xBkAP3J3gG5PXEwoHc84-38" target="xBkAP3J3gG5PXEwoHc84-39">
          <mxGeometry relative="1" as="geometry" />
        </mxCell>
        <mxCell id="xBkAP3J3gG5PXEwoHc84-38" value="3" style="ellipse;whiteSpace=wrap;html=1;aspect=fixed;" vertex="1" parent="1">
          <mxGeometry x="-95" y="-238" width="60" height="60" as="geometry" />
        </mxCell>
        <mxCell id="xBkAP3J3gG5PXEwoHc84-39" value="&lt;div&gt;sigma&lt;sub&gt;2&lt;/sub&gt;&lt;/div&gt;" style="ellipse;whiteSpace=wrap;html=1;aspect=fixed;" vertex="1" parent="1">
          <mxGeometry x="-95" y="-340" width="60" height="60" as="geometry" />
        </mxCell>
        <mxCell id="xBkAP3J3gG5PXEwoHc84-41" style="edgeStyle=none;shape=connector;rounded=0;orthogonalLoop=1;jettySize=auto;html=1;exitX=0.5;exitY=0;exitDx=0;exitDy=0;entryX=0.5;entryY=1;entryDx=0;entryDy=0;labelBackgroundColor=default;strokeColor=default;align=center;verticalAlign=middle;fontFamily=Helvetica;fontSize=11;fontColor=default;endArrow=classic;" edge="1" parent="1" source="xBkAP3J3gG5PXEwoHc84-40" target="xBkAP3J3gG5PXEwoHc84-38">
          <mxGeometry relative="1" as="geometry" />
        </mxCell>
        <mxCell id="xBkAP3J3gG5PXEwoHc84-40" value="doTwoPlusTwo&lt;sub&gt;7&lt;/sub&gt;" style="rounded=0;whiteSpace=wrap;html=1;" vertex="1" parent="1">
          <mxGeometry x="-126" y="-137.5" width="122" height="42" as="geometry" />
        </mxCell>
        <mxCell id="xBkAP3J3gG5PXEwoHc84-46" style="edgeStyle=none;shape=connector;rounded=0;orthogonalLoop=1;jettySize=auto;html=1;exitX=0.5;exitY=0;exitDx=0;exitDy=0;labelBackgroundColor=default;strokeColor=default;align=center;verticalAlign=middle;fontFamily=Helvetica;fontSize=11;fontColor=default;endArrow=block;endFill=0;" edge="1" parent="1" source="xBkAP3J3gG5PXEwoHc84-47" target="xBkAP3J3gG5PXEwoHc84-48">
          <mxGeometry relative="1" as="geometry" />
        </mxCell>
        <mxCell id="xBkAP3J3gG5PXEwoHc84-47" value="4" style="ellipse;whiteSpace=wrap;html=1;aspect=fixed;" vertex="1" parent="1">
          <mxGeometry x="40" y="-236" width="60" height="60" as="geometry" />
        </mxCell>
        <mxCell id="xBkAP3J3gG5PXEwoHc84-48" value="&lt;div&gt;sigma&lt;sub&gt;3&lt;/sub&gt;&lt;/div&gt;" style="ellipse;whiteSpace=wrap;html=1;aspect=fixed;" vertex="1" parent="1">
          <mxGeometry x="40" y="-340" width="60" height="60" as="geometry" />
        </mxCell>
        <mxCell id="xBkAP3J3gG5PXEwoHc84-49" style="edgeStyle=none;shape=connector;rounded=0;orthogonalLoop=1;jettySize=auto;html=1;exitX=0.5;exitY=0;exitDx=0;exitDy=0;entryX=0.5;entryY=1;entryDx=0;entryDy=0;labelBackgroundColor=default;strokeColor=default;align=center;verticalAlign=middle;fontFamily=Helvetica;fontSize=11;fontColor=default;endArrow=classic;" edge="1" parent="1" source="xBkAP3J3gG5PXEwoHc84-50" target="xBkAP3J3gG5PXEwoHc84-47">
          <mxGeometry relative="1" as="geometry" />
        </mxCell>
        <mxCell id="xBkAP3J3gG5PXEwoHc84-50" value="argtypes&lt;sub&gt;8&lt;/sub&gt;" style="rounded=0;whiteSpace=wrap;html=1;" vertex="1" parent="1">
          <mxGeometry x="9" y="-137.5" width="122" height="42" as="geometry" />
        </mxCell>
        <mxCell id="xBkAP3J3gG5PXEwoHc84-56" style="edgeStyle=none;shape=connector;rounded=0;orthogonalLoop=1;jettySize=auto;html=1;exitX=0.5;exitY=0;exitDx=0;exitDy=0;labelBackgroundColor=default;strokeColor=default;align=center;verticalAlign=middle;fontFamily=Helvetica;fontSize=11;fontColor=default;endArrow=block;endFill=0;" edge="1" parent="1" source="xBkAP3J3gG5PXEwoHc84-57" target="xBkAP3J3gG5PXEwoHc84-58">
          <mxGeometry relative="1" as="geometry" />
        </mxCell>
        <mxCell id="xBkAP3J3gG5PXEwoHc84-57" value="5" style="ellipse;whiteSpace=wrap;html=1;aspect=fixed;" vertex="1" parent="1">
          <mxGeometry x="-598" y="-241" width="60" height="60" as="geometry" />
        </mxCell>
        <mxCell id="xBkAP3J3gG5PXEwoHc84-58" value="&lt;div&gt;sigma&lt;sub&gt;4&lt;/sub&gt;&lt;/div&gt;" style="ellipse;whiteSpace=wrap;html=1;aspect=fixed;" vertex="1" parent="1">
          <mxGeometry x="-598" y="-343" width="60" height="60" as="geometry" />
        </mxCell>
        <mxCell id="xBkAP3J3gG5PXEwoHc84-59" style="edgeStyle=none;shape=connector;rounded=0;orthogonalLoop=1;jettySize=auto;html=1;exitX=0.5;exitY=0;exitDx=0;exitDy=0;entryX=0.5;entryY=1;entryDx=0;entryDy=0;labelBackgroundColor=default;strokeColor=default;align=center;verticalAlign=middle;fontFamily=Helvetica;fontSize=11;fontColor=default;endArrow=classic;" edge="1" parent="1" source="xBkAP3J3gG5PXEwoHc84-60" target="xBkAP3J3gG5PXEwoHc84-57">
          <mxGeometry relative="1" as="geometry" />
        </mxCell>
        <mxCell id="xBkAP3J3gG5PXEwoHc84-60" value="doTwoPlusTwo&lt;sub&gt;10&lt;/sub&gt;" style="rounded=0;whiteSpace=wrap;html=1;" vertex="1" parent="1">
          <mxGeometry x="-629" y="-140.5" width="122" height="42" as="geometry" />
        </mxCell>
        <mxCell id="xBkAP3J3gG5PXEwoHc84-61" style="edgeStyle=none;shape=connector;rounded=0;orthogonalLoop=1;jettySize=auto;html=1;exitX=0.5;exitY=0;exitDx=0;exitDy=0;labelBackgroundColor=default;strokeColor=default;align=center;verticalAlign=middle;fontFamily=Helvetica;fontSize=11;fontColor=default;endArrow=block;endFill=0;" edge="1" parent="1" source="xBkAP3J3gG5PXEwoHc84-62" target="xBkAP3J3gG5PXEwoHc84-63">
          <mxGeometry relative="1" as="geometry" />
        </mxCell>
        <mxCell id="xBkAP3J3gG5PXEwoHc84-62" value="6" style="ellipse;whiteSpace=wrap;html=1;aspect=fixed;" vertex="1" parent="1">
          <mxGeometry x="-463" y="-239" width="60" height="60" as="geometry" />
        </mxCell>
        <mxCell id="xBkAP3J3gG5PXEwoHc84-63" value="&lt;div&gt;sigma&lt;sub&gt;5&lt;/sub&gt;&lt;/div&gt;" style="ellipse;whiteSpace=wrap;html=1;aspect=fixed;" vertex="1" parent="1">
          <mxGeometry x="-463" y="-343" width="60" height="60" as="geometry" />
        </mxCell>
        <mxCell id="xBkAP3J3gG5PXEwoHc84-64" style="edgeStyle=none;shape=connector;rounded=0;orthogonalLoop=1;jettySize=auto;html=1;exitX=0.5;exitY=0;exitDx=0;exitDy=0;entryX=0.5;entryY=1;entryDx=0;entryDy=0;labelBackgroundColor=default;strokeColor=default;align=center;verticalAlign=middle;fontFamily=Helvetica;fontSize=11;fontColor=default;endArrow=classic;" edge="1" parent="1" source="xBkAP3J3gG5PXEwoHc84-65" target="xBkAP3J3gG5PXEwoHc84-62">
          <mxGeometry relative="1" as="geometry" />
        </mxCell>
        <mxCell id="xBkAP3J3gG5PXEwoHc84-65" value="restype&lt;sub&gt;11&lt;/sub&gt;" style="rounded=0;whiteSpace=wrap;html=1;" vertex="1" parent="1">
          <mxGeometry x="-494" y="-140.5" width="122" height="42" as="geometry" />
        </mxCell>
        <mxCell id="xBkAP3J3gG5PXEwoHc84-67" style="edgeStyle=none;shape=connector;rounded=0;orthogonalLoop=1;jettySize=auto;html=1;exitX=0.5;exitY=0;exitDx=0;exitDy=0;labelBackgroundColor=default;strokeColor=default;align=center;verticalAlign=middle;fontFamily=Helvetica;fontSize=11;fontColor=default;endArrow=block;endFill=0;" edge="1" parent="1" source="xBkAP3J3gG5PXEwoHc84-68" target="xBkAP3J3gG5PXEwoHc84-69">
          <mxGeometry relative="1" as="geometry" />
        </mxCell>
        <mxCell id="xBkAP3J3gG5PXEwoHc84-68" value="7" style="ellipse;whiteSpace=wrap;html=1;aspect=fixed;" vertex="1" parent="1">
          <mxGeometry x="-320" y="-239" width="60" height="60" as="geometry" />
        </mxCell>
        <mxCell id="xBkAP3J3gG5PXEwoHc84-69" value="&lt;div&gt;sigma&lt;sub&gt;6&lt;/sub&gt;&lt;/div&gt;" style="ellipse;whiteSpace=wrap;html=1;aspect=fixed;" vertex="1" parent="1">
          <mxGeometry x="-320" y="-343" width="60" height="60" as="geometry" />
        </mxCell>
        <mxCell id="xBkAP3J3gG5PXEwoHc84-70" style="edgeStyle=none;shape=connector;rounded=0;orthogonalLoop=1;jettySize=auto;html=1;exitX=0.5;exitY=0;exitDx=0;exitDy=0;entryX=0.5;entryY=1;entryDx=0;entryDy=0;labelBackgroundColor=default;strokeColor=default;align=center;verticalAlign=middle;fontFamily=Helvetica;fontSize=11;fontColor=default;endArrow=classic;" edge="1" parent="1" source="xBkAP3J3gG5PXEwoHc84-71" target="xBkAP3J3gG5PXEwoHc84-68">
          <mxGeometry relative="1" as="geometry" />
        </mxCell>
        <mxCell id="xBkAP3J3gG5PXEwoHc84-71" value="c_int&lt;sub&gt;13&lt;/sub&gt;" style="rounded=0;whiteSpace=wrap;html=1;" vertex="1" parent="1">
          <mxGeometry x="-351" y="-140.5" width="122" height="42" as="geometry" />
        </mxCell>
        <mxCell id="xBkAP3J3gG5PXEwoHc84-73" style="edgeStyle=none;shape=connector;rounded=0;orthogonalLoop=1;jettySize=auto;html=1;exitX=0.25;exitY=1;exitDx=0;exitDy=0;labelBackgroundColor=default;strokeColor=default;align=center;verticalAlign=middle;fontFamily=Helvetica;fontSize=11;fontColor=default;endArrow=classic;" edge="1" parent="1" source="xBkAP3J3gG5PXEwoHc84-72" target="xBkAP3J3gG5PXEwoHc84-13">
          <mxGeometry relative="1" as="geometry" />
        </mxCell>
        <mxCell id="xBkAP3J3gG5PXEwoHc84-72" value="print&lt;sub&gt;14&lt;/sub&gt;" style="rounded=0;whiteSpace=wrap;html=1;" vertex="1" parent="1">
          <mxGeometry x="-364" y="-30" width="56" height="33" as="geometry" />
        </mxCell>
        <mxCell id="xBkAP3J3gG5PXEwoHc84-74" value="&quot;doTwoPlusTwo&quot;&lt;sub&gt;16&lt;/sub&gt;" style="rounded=0;whiteSpace=wrap;html=1;" vertex="1" parent="1">
          <mxGeometry x="-495" y="200" width="100" height="39" as="geometry" />
        </mxCell>
        <mxCell id="xBkAP3J3gG5PXEwoHc84-75" style="edgeStyle=none;shape=connector;rounded=0;orthogonalLoop=1;jettySize=auto;html=1;exitX=0.5;exitY=0;exitDx=0;exitDy=0;entryX=0.4;entryY=0.967;entryDx=0;entryDy=0;entryPerimeter=0;labelBackgroundColor=default;strokeColor=default;align=center;verticalAlign=middle;fontFamily=Helvetica;fontSize=11;fontColor=default;endArrow=classic;" edge="1" parent="1" source="xBkAP3J3gG5PXEwoHc84-74" target="xBkAP3J3gG5PXEwoHc84-13">
          <mxGeometry relative="1" as="geometry" />
        </mxCell>
        <mxCell id="xBkAP3J3gG5PXEwoHc84-77" value="" style="edgeStyle=none;shape=connector;rounded=0;orthogonalLoop=1;jettySize=auto;html=1;labelBackgroundColor=default;strokeColor=default;align=center;verticalAlign=middle;fontFamily=Helvetica;fontSize=11;fontColor=default;endArrow=classic;" edge="1" parent="1" source="xBkAP3J3gG5PXEwoHc84-76" target="xBkAP3J3gG5PXEwoHc84-13">
          <mxGeometry relative="1" as="geometry" />
        </mxCell>
        <mxCell id="xBkAP3J3gG5PXEwoHc84-76" value="&lt;div&gt;l&lt;sub&gt;9&lt;/sub&gt;&lt;/div&gt;" style="rounded=0;whiteSpace=wrap;html=1;" vertex="1" parent="1">
          <mxGeometry x="-629" y="143" width="56" height="33" as="geometry" />
        </mxCell>
        <mxCell id="xBkAP3J3gG5PXEwoHc84-78" value="doTwoPlusTwo&lt;sub&gt;17&lt;/sub&gt;" style="rounded=0;whiteSpace=wrap;html=1;" vertex="1" parent="1">
          <mxGeometry x="-272" y="228.5" width="122" height="42" as="geometry" />
        </mxCell>
        <mxCell id="xBkAP3J3gG5PXEwoHc84-82" value="/.../script.py&lt;sub&gt;-1&lt;/sub&gt;" style="rounded=0;whiteSpace=wrap;html=1;" vertex="1" parent="1">
          <mxGeometry x="-310" y="34" width="122" height="42" as="geometry" />
        </mxCell>
        <mxCell id="xBkAP3J3gG5PXEwoHc84-85" value="/.../lib.c&lt;sub&gt;-2&lt;/sub&gt;" style="rounded=0;whiteSpace=wrap;html=1;" vertex="1" parent="1">
          <mxGeometry x="-153" y="119" width="122" height="42" as="geometry" />
        </mxCell>
        <mxCell id="xBkAP3J3gG5PXEwoHc84-91" value="/.../ctypes.py" style="rounded=0;whiteSpace=wrap;html=1;" vertex="1" parent="1">
          <mxGeometry x="-287" y="-80" width="122" height="42" as="geometry" />
        </mxCell>
        <mxCell id="xBkAP3J3gG5PXEwoHc84-95" value="/.../build.sh&lt;sub&gt;-3&lt;/sub&gt;" style="rounded=0;whiteSpace=wrap;html=1;" vertex="1" parent="1">
          <mxGeometry x="4" y="3.5" width="122" height="42" as="geometry" />
        </mxCell>
        <mxCell id="xBkAP3J3gG5PXEwoHc84-99" style="edgeStyle=none;shape=connector;rounded=0;orthogonalLoop=1;jettySize=auto;html=1;exitX=0.5;exitY=1;exitDx=0;exitDy=0;entryX=1;entryY=0.5;entryDx=0;entryDy=0;labelBackgroundColor=default;strokeColor=default;align=center;verticalAlign=middle;fontFamily=Helvetica;fontSize=11;fontColor=default;endArrow=classic;startArrow=block;startFill=0;" edge="1" parent="1" source="xBkAP3J3gG5PXEwoHc84-4" target="xBkAP3J3gG5PXEwoHc84-82">
          <mxGeometry relative="1" as="geometry" />
        </mxCell>
        <mxCell id="xBkAP3J3gG5PXEwoHc84-104" style="edgeStyle=none;shape=connector;rounded=0;orthogonalLoop=1;jettySize=auto;html=1;exitX=0.5;exitY=0;exitDx=0;exitDy=0;entryX=0.5;entryY=1;entryDx=0;entryDy=0;labelBackgroundColor=default;strokeColor=default;align=center;verticalAlign=middle;fontFamily=Helvetica;fontSize=11;fontColor=default;endArrow=classic;" edge="1" parent="1" source="xBkAP3J3gG5PXEwoHc84-103" target="xBkAP3J3gG5PXEwoHc84-2">
          <mxGeometry relative="1" as="geometry" />
        </mxCell>
        <mxCell id="xBkAP3J3gG5PXEwoHc84-103" value="lib.c&lt;sub&gt;23&lt;/sub&gt;" style="rounded=0;whiteSpace=wrap;html=1;" vertex="1" parent="1">
          <mxGeometry x="-62" y="226" width="122" height="42" as="geometry" />
        </mxCell>
        <mxCell id="xBkAP3J3gG5PXEwoHc84-105" value="liblib.so&lt;sub&gt;25&lt;/sub&gt;" style="rounded=0;whiteSpace=wrap;html=1;" vertex="1" parent="1">
          <mxGeometry x="87" y="226" width="122" height="42" as="geometry" />
        </mxCell>
        <mxCell id="xBkAP3J3gG5PXEwoHc84-110" style="edgeStyle=none;shape=connector;rounded=0;orthogonalLoop=1;jettySize=auto;html=1;exitX=0;exitY=0.5;exitDx=0;exitDy=0;entryX=1.005;entryY=0.695;entryDx=0;entryDy=0;labelBackgroundColor=default;strokeColor=default;align=center;verticalAlign=middle;fontFamily=Helvetica;fontSize=11;fontColor=default;endArrow=classic;entryPerimeter=0;" edge="1" parent="1" source="xBkAP3J3gG5PXEwoHc84-108" target="xBkAP3J3gG5PXEwoHc84-2">
          <mxGeometry relative="1" as="geometry" />
        </mxCell>
        <mxCell id="xBkAP3J3gG5PXEwoHc84-108" value="python3&lt;sub&gt;27&lt;/sub&gt;" style="rounded=0;whiteSpace=wrap;html=1;" vertex="1" parent="1">
          <mxGeometry x="148" y="158" width="122" height="42" as="geometry" />
        </mxCell>
        <mxCell id="xBkAP3J3gG5PXEwoHc84-112" style="edgeStyle=none;shape=connector;rounded=0;orthogonalLoop=1;jettySize=auto;html=1;exitX=0;exitY=0.5;exitDx=0;exitDy=0;entryX=1;entryY=0;entryDx=0;entryDy=0;labelBackgroundColor=default;strokeColor=default;align=center;verticalAlign=middle;fontFamily=Helvetica;fontSize=11;fontColor=default;endArrow=classic;" edge="1" parent="1" source="xBkAP3J3gG5PXEwoHc84-111" target="xBkAP3J3gG5PXEwoHc84-2">
          <mxGeometry relative="1" as="geometry" />
        </mxCell>
        <mxCell id="xBkAP3J3gG5PXEwoHc84-111" value="script.py&lt;sub&gt;28&lt;/sub&gt;" style="rounded=0;whiteSpace=wrap;html=1;" vertex="1" parent="1">
          <mxGeometry x="131" y="76" width="122" height="42" as="geometry" />
        </mxCell>
        <mxCell id="xBkAP3J3gG5PXEwoHc84-113" value="/.../python3" style="rounded=0;whiteSpace=wrap;html=1;" vertex="1" parent="1">
          <mxGeometry x="-143" y="-80" width="122" height="42" as="geometry" />
        </mxCell>
      </root>
    </mxGraphModel>
  </diagram>
</mxfile>
